<svg id="Layer_1" data-name="Layer 1" xmlns="http://www.w3.org/2000/svg" viewBox="0 0 397.52 160.65"><defs><style>.cls-1{fill:#43a049;}.cls-2{fill:#6fad4a;}.cls-3{font-size:50px;fill:#fff;font-family:Acme-Regular, Acme;}</style></defs><path class="cls-1" d="M188.13,41.13c1.77,2.37,20.19,27.83,10.08,59-11.2,34.55-46.67,43-48.24,43.31a113.81,113.81,0,0,1,31.35-62.23A93.58,93.58,0,0,0,165,96.3c-15.3,18-20.09,37.58-21.81,48.39-2-5.85-6.73-22.37-.13-41,3.44-9.73,10.07-17.73,12.09-20.24,4.32-5.37,10.87-12.13,18-19.5a66.31,66.31,0,0,0,8.38-9.85A58,58,0,0,0,188.13,41.13Z" transform="translate(-46.42 -41.13)"/><path class="cls-2" d="M99.56,58.36c1.9.58,25.85,8.38,33.36,33.45,7.84,26.17-9.63,46.51-10.66,47.67a85.51,85.51,0,0,1-8.84-52.78,70.93,70.93,0,0,0-3.1,16c-1.44,18.5,4.75,33.19,8.75,40.84a47.83,47.83,0,0,1-14.4-15.41c-8.38-14.4-6.45-28.84-5.66-33.36,1-6,1.56-11,1.92-14.85.68-7.26.58-10.16.36-12.49A47.78,47.78,0,0,0,99.56,58.36Z" transform="translate(-46.42 -41.13)"/><path class="cls-1" d="M52.78,109.24c14.75-4.42,30.45-.53,40.4,10.09,11.32,12.09,10.17,27.52,9.94,30.08a65.45,65.45,0,0,1-28.9-28.62,55.94,55.94,0,0,0,28.44,32.63,36.26,36.26,0,0,1-33.36-20c-2.11-3.87-3.76-6.92-4.74-8.75-3.12-5.79-4-7.56-5.9-9.86A32.52,32.52,0,0,0,52.78,109.24Z" transform="translate(-46.42 -41.13)"/><path class="cls-2" d="M46.42,162.26c.66-.95,9.41-13.08,24.88-12.76,16.4.35,24.68,14.35,25.07,15a58.75,58.75,0,0,1-31.54-4.74A44.08,44.08,0,0,0,97.28,167a26.58,26.58,0,0,1-11.85,5.56,27.12,27.12,0,0,1-17-2.37,58.63,58.63,0,0,1-8.39-3.82c-2.86-1.6-4.23-2.7-6.83-3.47A18.07,18.07,0,0,0,46.42,162.26Z" transform="translate(-46.42 -41.13)"/><path class="cls-1" d="M66.2,198c0-.78-.1-12.61,10-19.41s21.37-2.12,22-1.82A38.82,38.82,0,0,1,77.05,188a34.39,34.39,0,0,0,23.42-10.39,19.82,19.82,0,0,1-15.22,14.76,56.6,56.6,0,0,1-5.65,1.55c-4.2.93-6.19.87-9.39,2.1A23.37,23.37,0,0,0,66.2,198Z" transform="translate(-46.42 -41.13)"/><text class="cls-3" transform="translate(62.77 145.3)">AUSHADHI VED</text></svg>